# xmcd
# 
# Track frame offsets:
#     150
#     16748
#     30901
#     47489
# 
# Disc length: 818
# 
# Revision: 3
# Processed by: cddbd v1.5.2PL0 Copyright (c) Steve Scherf et al.
# Submitted via: fre:ac v1.1beta1pre5
# 
DISCID=1c033004
DTITLE=Various Artist - A Page of My Story
DYEAR=2017
DGENRE=Anime
TTITLE0=アンジェ(CV.今村彩夏)／プリンセス(CV.関根明良)／ドロシー(CV.大地葉)／ベアトリス(CV.影山灯)／ちせ(CV.古木のぞみ) - A Page of My Story
TTITLE1=アンジェ(CV.今村彩夏)／プリンセス(CV.関根明良)／ドロシー(CV.大地葉)／ベアトリス(CV.影山灯)／ちせ(CV.古木のぞみ) - Shoot Your Heart Out!
TTITLE2=高橋諒 - A Page of My Story(Instrumental)
TTITLE3=高橋諒 - Shoot Your Heart Out!(Instrumental)
EXTD=
EXTT0=
EXTT1=
EXTT2=
EXTT3=
PLAYORDER=
